<mxfile host="app.diagrams.net" modified="2023-10-13T08:40:14.389Z" agent="Mozilla/5.0 (Windows NT 10.0; Win64; x64) AppleWebKit/537.36 (KHTML, like Gecko) Chrome/117.0.0.0 Safari/537.36" version="22.0.4" etag="nLKRpQ64mGEitveGkewN" type="github">
  <diagram name="Page-1" id="hi5qfqSip4eEc27L2mwn">
    <mxGraphModel>
      <root>
        <mxCell id="0" />
        <mxCell id="1" parent="0" />
      </root>
    </mxGraphModel>
  </diagram>
</mxfile>
